solid icosahedron
facet normal 0.0 0.525731112119135 -0.850650808352039
outer loop
vertex 14.1999999999998 153.884176858762 3.83515441626514e-013
vertex -85.8000000000002 16.2459848116455 -85.0650808352035
vertex -85.8000000000002 153.884176858762 3.83515441626514e-013
endloop
endfacet
facet normal 0.0 0.525731112119135 -0.850650808352039
outer loop
vertex -85.8000000000002 16.2459848116455 -85.0650808352035
vertex 14.1999999999998 153.884176858762 3.83515441626514e-013
vertex 14.1999999999998 16.2459848116455 -85.0650808352035
endloop
endfacet
facet normal -0.356822089773089 -0.491123473188424 0.794654472291766
outer loop
vertex 45.1016994374943 111.351636441161 -85.0650808352035
vertex -35.8000000000002 170.130161670408 -85.0650808352034
vertex -35.8000000000002 85.0650808352039 -137.638192047117
endloop
endfacet
facet normal -0.577350269189626 0.187592474085079 0.794654472291766
outer loop
vertex 45.1016994374943 111.351636441161 -85.0650808352035
vertex -35.8000000000002 85.0650808352039 -137.638192047117
vertex 14.1999999999998 16.2459848116455 -85.0650808352035
endloop
endfacet
facet normal -2.94575086339044e-017 8.88178419700125e-016 -1.0
outer loop
vertex -35.8000000000002 170.130161670408 -85.0650808352034
vertex -85.8000000000002 16.2459848116455 -85.0650808352035
vertex -116.701699437495 111.351636441161 -85.0650808352035
endloop
endfacet
facet normal -2.94575086339044e-017 8.88178419700125e-016 -1.0
outer loop
vertex -85.8000000000002 16.2459848116455 -85.0650808352035
vertex -35.8000000000002 170.130161670408 -85.0650808352034
vertex 14.1999999999998 16.2459848116455 -85.0650808352035
endloop
endfacet
facet normal -2.94575086339044e-017 8.88178419700125e-016 -1.0
outer loop
vertex 14.1999999999998 16.2459848116455 -85.0650808352035
vertex -35.8000000000002 170.130161670408 -85.0650808352034
vertex 45.1016994374943 111.351636441161 -85.0650808352035
endloop
endfacet
facet normal 0.934172358962716 0.303530999103342 0.18759247408508
outer loop
vertex -116.701699437495 58.7785252292472 4.06075173486897e-013
vertex -85.8000000000002 16.2459848116455 -85.0650808352035
vertex -116.701699437495 111.351636441161 -85.0650808352035
endloop
endfacet
facet normal 0.525731112119134 -0.723606797749978 -0.447213595499959
outer loop
vertex 45.1016994374943 111.351636441161 -85.0650808352035
vertex -85.8000000000002 16.2459848116455 -85.0650808352035
vertex -35.8000000000002 85.0650808352039 -137.638192047117
endloop
endfacet
facet normal 0.525731112119134 -0.723606797749978 -0.447213595499959
outer loop
vertex -85.8000000000002 16.2459848116455 -85.0650808352035
vertex 45.1016994374943 111.351636441161 -85.0650808352035
vertex 45.1016994374943 58.7785252292472 3.83515441626514e-013
endloop
endfacet
facet normal 0.525731112119134 -0.723606797749978 -0.447213595499959
outer loop
vertex -85.8000000000002 16.2459848116455 -85.0650808352035
vertex 45.1016994374943 58.7785252292472 3.83515441626514e-013
vertex -35.8000000000002 0.0 4.51194637207664e-014
endloop
endfacet
facet normal 0.577350269189626 -0.794654472291766 0.187592474085079
outer loop
vertex -85.8000000000002 153.884176858762 3.83515441626514e-013
vertex -116.701699437495 111.351636441161 -85.0650808352035
vertex -35.8000000000002 170.130161670408 -85.0650808352034
endloop
endfacet
facet normal -0.525731112119134 -0.723606797749978 -0.447213595499959
outer loop
vertex 14.1999999999998 16.2459848116455 -85.0650808352035
vertex -116.701699437495 111.351636441161 -85.0650808352035
vertex -35.8000000000002 85.0650808352039 -137.638192047117
endloop
endfacet
facet normal -0.525731112119134 -0.723606797749978 -0.447213595499959
outer loop
vertex -116.701699437495 111.351636441161 -85.0650808352035
vertex 14.1999999999998 16.2459848116455 -85.0650808352035
vertex -116.701699437495 58.7785252292472 4.06075173486897e-013
endloop
endfacet
facet normal -0.525731112119134 -0.723606797749978 -0.447213595499959
outer loop
vertex -116.701699437495 58.7785252292472 4.06075173486897e-013
vertex 14.1999999999998 16.2459848116455 -85.0650808352035
vertex -35.8000000000002 0.0 4.51194637207664e-014
endloop
endfacet
facet normal 0.85065080835204 0.276393202250022 -0.447213595499958
outer loop
vertex -116.701699437495 111.351636441161 -85.0650808352035
vertex -35.8000000000002 0.0 4.51194637207664e-014
vertex -85.8000000000002 16.2459848116455 -85.0650808352035
endloop
endfacet
facet normal 0.85065080835204 0.276393202250022 -0.447213595499958
outer loop
vertex -35.8000000000002 0.0 4.51194637207664e-014
vertex -116.701699437495 111.351636441161 -85.0650808352035
vertex -35.8000000000002 85.0650808352039 52.5731112119135
endloop
endfacet
facet normal 0.85065080835204 0.276393202250022 -0.447213595499958
outer loop
vertex -35.8000000000002 85.0650808352039 52.5731112119135
vertex -116.701699437495 111.351636441161 -85.0650808352035
vertex -85.8000000000002 153.884176858762 3.83515441626514e-013
endloop
endfacet
facet normal 0.577350269189625 0.794654472291767 -0.187592474085079
outer loop
vertex -35.8000000000002 0.0 4.51194637207664e-014
vertex -85.8000000000002 16.2459848116455 -85.0650808352035
vertex -116.701699437495 58.7785252292472 4.06075173486897e-013
endloop
endfacet
facet normal -0.577350269189626 -0.794654472291766 0.187592474085079
outer loop
vertex 14.1999999999998 153.884176858762 3.83515441626514e-013
vertex -35.8000000000002 170.130161670408 -85.0650808352034
vertex 45.1016994374943 111.351636441161 -85.0650808352035
endloop
endfacet
facet normal 0.356822089773089 -0.491123473188424 0.794654472291766
outer loop
vertex -35.8000000000002 85.0650808352039 -137.638192047117
vertex -35.8000000000002 170.130161670408 -85.0650808352034
vertex -116.701699437495 111.351636441161 -85.0650808352035
endloop
endfacet
facet normal 3.08913178211838e-018 -0.982246946376846 -0.187592474085083
outer loop
vertex -85.8000000000002 153.884176858762 3.83515441626514e-013
vertex -35.8000000000002 170.130161670408 -85.0650808352034
vertex 14.1999999999998 153.884176858762 3.83515441626514e-013
endloop
endfacet
facet normal -9.99664043838837e-018 0.607061998206687 0.794654472291766
outer loop
vertex 14.1999999999998 16.2459848116455 -85.0650808352035
vertex -35.8000000000002 85.0650808352039 -137.638192047117
vertex -85.8000000000002 16.2459848116455 -85.0650808352035
endloop
endfacet
facet normal -0.356822089773087 -0.491123473188424 0.794654472291766
outer loop
vertex -35.8000000000002 0.0 4.51194637207664e-014
vertex -35.8000000000002 85.0650808352039 52.5731112119135
vertex -116.701699437495 58.7785252292472 4.06075173486897e-013
endloop
endfacet
facet normal -4.46667707699519e-017 0.894427190999917 -0.447213595499957
outer loop
vertex -85.8000000000002 153.884176858762 3.83515441626514e-013
vertex -35.8000000000002 85.0650808352039 -137.638192047117
vertex -116.701699437495 111.351636441161 -85.0650808352035
endloop
endfacet
facet normal -4.46667707699519e-017 0.894427190999917 -0.447213595499957
outer loop
vertex -35.8000000000002 85.0650808352039 -137.638192047117
vertex -85.8000000000002 153.884176858762 3.83515441626514e-013
vertex 14.1999999999998 153.884176858762 3.83515441626514e-013
endloop
endfacet
facet normal -4.46667707699519e-017 0.894427190999917 -0.447213595499957
outer loop
vertex -35.8000000000002 85.0650808352039 -137.638192047117
vertex 14.1999999999998 153.884176858762 3.83515441626514e-013
vertex 45.1016994374943 111.351636441161 -85.0650808352035
endloop
endfacet
facet normal -0.934172358962716 0.303530999103342 0.187592474085079
outer loop
vertex 45.1016994374943 58.7785252292472 3.83515441626514e-013
vertex 45.1016994374943 111.351636441161 -85.0650808352035
vertex 14.1999999999998 16.2459848116455 -85.0650808352035
endloop
endfacet
facet normal -0.934172358962716 -0.303530999103342 -0.187592474085079
outer loop
vertex 14.1999999999998 153.884176858762 3.83515441626514e-013
vertex 45.1016994374943 111.351636441161 -85.0650808352035
vertex 45.1016994374943 58.7785252292472 3.83515441626514e-013
endloop
endfacet
facet normal -7.14948752903261e-017 1.68753899743024e-015 -1.0
outer loop
vertex -85.8000000000002 153.884176858762 3.83515441626514e-013
vertex -35.8000000000002 0.0 4.51194637207664e-014
vertex -116.701699437495 58.7785252292472 4.06075173486897e-013
endloop
endfacet
facet normal -7.14948752903261e-017 1.68753899743024e-015 -1.0
outer loop
vertex -35.8000000000002 0.0 4.51194637207664e-014
vertex -85.8000000000002 153.884176858762 3.83515441626514e-013
vertex 14.1999999999998 153.884176858762 3.83515441626514e-013
endloop
endfacet
facet normal -7.14948752903261e-017 1.68753899743024e-015 -1.0
outer loop
vertex -35.8000000000002 0.0 4.51194637207664e-014
vertex 14.1999999999998 153.884176858762 3.83515441626514e-013
vertex 45.1016994374943 58.7785252292472 3.83515441626514e-013
endloop
endfacet
facet normal 0.577350269189626 0.187592474085079 0.794654472291766
outer loop
vertex -116.701699437495 111.351636441161 -85.0650808352035
vertex -85.8000000000002 16.2459848116455 -85.0650808352035
vertex -35.8000000000002 85.0650808352039 -137.638192047117
endloop
endfacet
facet normal 0.0 0.982246946376846 0.187592474085082
outer loop
vertex -35.8000000000002 0.0 4.51194637207664e-014
vertex 14.1999999999998 16.2459848116455 -85.0650808352035
vertex -85.8000000000002 16.2459848116455 -85.0650808352035
endloop
endfacet
facet normal -0.577350269189626 0.794654472291766 -0.187592474085079
outer loop
vertex 45.1016994374943 58.7785252292472 3.83515441626514e-013
vertex 14.1999999999998 16.2459848116455 -85.0650808352035
vertex -35.8000000000002 0.0 4.51194637207664e-014
endloop
endfacet
facet normal 0.577350269189625 -0.187592474085079 -0.794654472291767
outer loop
vertex -35.8000000000002 85.0650808352039 52.5731112119135
vertex -116.701699437495 58.7785252292472 4.06075173486897e-013
vertex -85.8000000000002 153.884176858762 3.83515441626514e-013
endloop
endfacet
facet normal 0.85065080835204 0.276393202250021 -0.447213595499957
outer loop
vertex -35.8000000000002 85.0650808352039 -137.638192047117
vertex 45.1016994374943 58.7785252292472 3.83515441626514e-013
vertex 14.1999999999998 16.2459848116455 -85.0650808352035
endloop
endfacet
facet normal 0.85065080835204 0.276393202250021 -0.447213595499957
outer loop
vertex 45.1016994374943 58.7785252292472 3.83515441626514e-013
vertex -35.8000000000002 85.0650808352039 -137.638192047117
vertex -35.8000000000002 170.130161670408 -85.0650808352034
endloop
endfacet
facet normal 0.85065080835204 0.276393202250021 -0.447213595499957
outer loop
vertex 45.1016994374943 58.7785252292472 3.83515441626514e-013
vertex -35.8000000000002 170.130161670408 -85.0650808352034
vertex 14.1999999999998 153.884176858762 3.83515441626514e-013
endloop
endfacet
facet normal 0.85065080835204 -0.276393202250021 0.447213595499957
outer loop
vertex -35.8000000000002 85.0650808352039 -137.638192047117
vertex -116.701699437495 58.7785252292472 4.06075173486897e-013
vertex -85.8000000000002 16.2459848116455 -85.0650808352035
endloop
endfacet
facet normal 0.85065080835204 -0.276393202250021 0.447213595499957
outer loop
vertex -116.701699437495 58.7785252292472 4.06075173486897e-013
vertex -35.8000000000002 85.0650808352039 -137.638192047117
vertex -35.8000000000002 170.130161670408 -85.0650808352034
endloop
endfacet
facet normal 0.85065080835204 -0.276393202250021 0.447213595499957
outer loop
vertex -116.701699437495 58.7785252292472 4.06075173486897e-013
vertex -35.8000000000002 170.130161670408 -85.0650808352034
vertex -85.8000000000002 153.884176858762 3.83515441626514e-013
endloop
endfacet
facet normal 0.934172358962716 -0.303530999103342 -0.18759247408508
outer loop
vertex -85.8000000000002 153.884176858762 3.83515441626514e-013
vertex -116.701699437495 58.7785252292472 4.06075173486897e-013
vertex -116.701699437495 111.351636441161 -85.0650808352035
endloop
endfacet
facet normal -0.525731112119134 0.723606797749979 0.447213595499959
outer loop
vertex -116.701699437495 111.351636441161 -85.0650808352035
vertex 14.1999999999998 153.884176858762 3.83515441626514e-013
vertex -35.8000000000002 170.130161670408 -85.0650808352034
endloop
endfacet
facet normal -0.525731112119134 0.723606797749979 0.447213595499959
outer loop
vertex 14.1999999999998 153.884176858762 3.83515441626514e-013
vertex -116.701699437495 111.351636441161 -85.0650808352035
vertex -116.701699437495 58.7785252292472 4.06075173486897e-013
endloop
endfacet
facet normal -0.525731112119134 0.723606797749979 0.447213595499959
outer loop
vertex 14.1999999999998 153.884176858762 3.83515441626514e-013
vertex -116.701699437495 58.7785252292472 4.06075173486897e-013
vertex -35.8000000000002 85.0650808352039 52.5731112119135
endloop
endfacet
facet normal -9.9966404383886e-018 -0.607061998206686 -0.794654472291766
outer loop
vertex -35.8000000000002 85.0650808352039 52.5731112119135
vertex -85.8000000000002 153.884176858762 3.83515441626514e-013
vertex 14.1999999999998 153.884176858762 3.83515441626514e-013
endloop
endfacet
facet normal -0.85065080835204 0.276393202250022 -0.447213595499958
outer loop
vertex -35.8000000000002 0.0 4.51194637207664e-014
vertex 45.1016994374943 111.351636441161 -85.0650808352035
vertex 14.1999999999998 16.2459848116455 -85.0650808352035
endloop
endfacet
facet normal -0.85065080835204 0.276393202250022 -0.447213595499958
outer loop
vertex 45.1016994374943 111.351636441161 -85.0650808352035
vertex -35.8000000000002 0.0 4.51194637207664e-014
vertex -35.8000000000002 85.0650808352039 52.5731112119135
endloop
endfacet
facet normal -0.85065080835204 0.276393202250022 -0.447213595499958
outer loop
vertex 45.1016994374943 111.351636441161 -85.0650808352035
vertex -35.8000000000002 85.0650808352039 52.5731112119135
vertex 14.1999999999998 153.884176858762 3.83515441626514e-013
endloop
endfacet
facet normal -0.525731112119134 -0.723606797749978 -0.447213595499959
outer loop
vertex 45.1016994374943 111.351636441161 -85.0650808352035
vertex -85.8000000000002 153.884176858762 3.83515441626514e-013
vertex -35.8000000000002 170.130161670408 -85.0650808352034
endloop
endfacet
facet normal -0.525731112119134 -0.723606797749978 -0.447213595499959
outer loop
vertex -85.8000000000002 153.884176858762 3.83515441626514e-013
vertex 45.1016994374943 111.351636441161 -85.0650808352035
vertex 45.1016994374943 58.7785252292472 3.83515441626514e-013
endloop
endfacet
facet normal -0.525731112119134 -0.723606797749978 -0.447213595499959
outer loop
vertex -85.8000000000002 153.884176858762 3.83515441626514e-013
vertex 45.1016994374943 58.7785252292472 3.83515441626514e-013
vertex -35.8000000000002 85.0650808352039 52.5731112119135
endloop
endfacet
facet normal -5.01792217980542e-017 0.894427190999916 -0.447213595499957
outer loop
vertex -35.8000000000002 85.0650808352039 52.5731112119135
vertex -85.8000000000002 16.2459848116455 -85.0650808352035
vertex -116.701699437495 58.7785252292472 4.06075173486897e-013
endloop
endfacet
facet normal -5.01792217980542e-017 0.894427190999916 -0.447213595499957
outer loop
vertex -85.8000000000002 16.2459848116455 -85.0650808352035
vertex -35.8000000000002 85.0650808352039 52.5731112119135
vertex 14.1999999999998 16.2459848116455 -85.0650808352035
endloop
endfacet
facet normal -5.01792217980542e-017 0.894427190999916 -0.447213595499957
outer loop
vertex 14.1999999999998 16.2459848116455 -85.0650808352035
vertex -35.8000000000002 85.0650808352039 52.5731112119135
vertex 45.1016994374943 58.7785252292472 3.83515441626514e-013
endloop
endfacet
facet normal -0.577350269189625 -0.187592474085079 -0.794654472291767
outer loop
vertex 45.1016994374943 58.7785252292472 3.83515441626514e-013
vertex -35.8000000000002 85.0650808352039 52.5731112119135
vertex 14.1999999999998 153.884176858762 3.83515441626514e-013
endloop
endfacet
facet normal -0.356822089773088 0.491123473188424 -0.794654472291766
outer loop
vertex 45.1016994374943 58.7785252292472 3.83515441626514e-013
vertex -35.8000000000002 0.0 4.51194637207664e-014
vertex -35.8000000000002 85.0650808352039 52.5731112119135
endloop
endfacet
facet normal 0.0 0.850650808352039 0.525731112119135
outer loop
vertex -116.701699437495 58.7785252292472 3.94795307556706e-013
vertex 45.1016994374943 111.351636441161 -85.0650808352035
vertex -116.701699437495 111.351636441161 -85.0650808352035
endloop
endfacet
facet normal 0.0 0.850650808352039 0.525731112119135
outer loop
vertex 45.1016994374943 111.351636441161 -85.0650808352035
vertex -116.701699437495 58.7785252292472 3.94795307556706e-013
vertex 45.1016994374943 58.7785252292472 3.83515441626514e-013
endloop
endfacet
facet normal 1.0 9.58632483897557e-017 -3.86391623176888e-017
outer loop
vertex -35.8000000000002 170.130161670408 -85.0650808352033
vertex -35.8000000000002 0.0 4.51194637207664e-014
vertex -35.8000000000002 85.0650808352039 -137.638192047117
endloop
endfacet
facet normal 1.0 9.58632483897557e-017 -3.86391623176888e-017
outer loop
vertex -35.8000000000002 0.0 4.51194637207664e-014
vertex -35.8000000000002 170.130161670408 -85.0650808352033
vertex -35.8000000000002 85.0650808352039 52.5731112119135
endloop
endfacet
endsolid icosahedron
